<svg xmlns="http://www.w3.org/2000/svg" width="19" height="18" viewBox="0 0 19 18" fill="none">
<path d="M18.7553 9.89469C18.6962 10.3168 18.6524 10.7414 18.5754 11.1602C18.326 12.5153 17.7703 13.7955 16.9506 14.903C16.096 16.078 14.9796 17.038 13.6898 17.7069C13.5779 17.7835 13.4419 17.8169 13.3072 17.8011C13.1725 17.7852 13.048 17.7211 12.9569 17.6206C12.9024 17.5604 12.8621 17.4886 12.8391 17.4106C12.8161 17.3326 12.811 17.2504 12.8241 17.1702C12.8373 17.09 12.8683 17.0137 12.915 16.9471C12.9616 16.8806 13.0227 16.8254 13.0936 16.7856C13.3631 16.6183 13.6477 16.4757 13.911 16.3002C14.8323 15.7114 15.6241 14.9413 16.2383 14.0368C16.8524 13.1323 17.2761 12.1123 17.4835 11.0388C17.9177 8.93498 17.5163 6.74468 16.3642 4.93156C15.2121 3.11844 13.3997 1.82475 11.3106 1.3243C9.22151 0.823848 7.01966 1.15591 5.17107 2.25021C3.32248 3.34451 1.97223 5.11516 1.40608 7.18742C0.644729 9.99038 1.25209 12.5386 3.1079 14.7778C3.73076 15.5177 4.48531 16.1357 5.33336 16.6007C5.41288 16.6453 5.49406 16.6888 5.56966 16.7401C5.69051 16.8151 5.77701 16.9346 5.81047 17.0729C5.84393 17.2111 5.82166 17.357 5.74849 17.4789C5.71425 17.5408 5.66794 17.5951 5.6123 17.6388C5.55666 17.6824 5.49283 17.7144 5.42458 17.7329C5.35634 17.7514 5.28506 17.756 5.215 17.7465C5.14494 17.7369 5.07751 17.7134 5.01671 17.6773C4.44987 17.3433 3.90348 16.9758 3.38047 16.5767C2.10485 15.5372 1.13651 14.1699 0.57946 12.6215C0.288122 11.8309 0.105202 11.0045 0.0357075 10.1648C0.0281749 10.0744 0.0122754 9.98479 0 9.89496V8.83231C0.0150652 8.70026 0.0300404 8.5684 0.0449196 8.43672C0.279529 6.19493 1.3109 4.11178 2.9515 2.56611C4.5921 1.02044 6.73295 0.114879 8.98473 0.0141361C10.8018 -0.0883054 12.6067 0.367916 14.1568 1.32147C15.326 2.00419 16.3308 2.93543 17.1003 4.04934C17.8698 5.16326 18.3852 6.43263 18.61 7.7677C18.6758 8.11922 18.7082 8.47717 18.7562 8.83231L18.7553 9.89469Z" fill="white"/>
<path d="M9.32622 2.84192C12.1719 3.00038 14.2274 4.28206 15.3671 6.84593C16.0164 8.35838 16.0658 10.0612 15.5052 11.6088C14.9447 13.1563 13.8163 14.4325 12.349 15.1784C12.2844 15.2195 12.2121 15.2468 12.1365 15.2585C12.0608 15.2703 11.9836 15.2663 11.9096 15.2469C11.8356 15.2274 11.7664 15.1928 11.7064 15.1453C11.6464 15.0978 11.5968 15.0384 11.5609 14.9708C11.5253 14.9045 11.504 14.8315 11.4981 14.7565C11.4923 14.6815 11.5022 14.6061 11.5271 14.5351C11.552 14.4641 11.5914 14.399 11.6428 14.3441C11.6942 14.2891 11.7565 14.2455 11.8256 14.2159C12.688 13.784 13.4162 13.125 13.9317 12.3098C14.4366 11.5502 14.7345 10.672 14.7961 9.76193C14.8577 8.85188 14.6808 7.9415 14.2829 7.12073C13.9316 6.3546 13.4057 5.68142 12.7474 5.15509C12.089 4.62877 11.3166 4.26393 10.4919 4.08983C9.66726 3.91572 8.81327 3.93719 7.99838 4.15249C7.18349 4.36778 6.43034 4.77092 5.79927 5.32963C4.79241 6.20381 4.14944 7.42338 3.99704 8.74805C3.87386 9.80359 4.06357 10.8721 4.54261 11.8207C5.02165 12.7693 5.76889 13.5562 6.69147 14.0836C6.78214 14.1339 6.87477 14.1804 6.96376 14.2337C7.02819 14.2676 7.08524 14.314 7.13157 14.3701C7.1779 14.4263 7.21259 14.4911 7.23362 14.5608C7.25465 14.6305 7.26159 14.7036 7.25405 14.776C7.24651 14.8484 7.22464 14.9186 7.18971 14.9825C7.15477 15.0463 7.10746 15.1026 7.05055 15.148C6.99365 15.1934 6.92827 15.227 6.85824 15.2469C6.78821 15.2667 6.71493 15.2725 6.64267 15.2638C6.5704 15.255 6.50058 15.232 6.43731 15.196C5.89609 14.9254 5.39701 14.5776 4.95563 14.1637C4.29689 13.5538 3.77144 12.8141 3.41232 11.9913C3.05319 11.1685 2.86816 10.2803 2.86884 9.38255C2.86952 8.48478 3.0559 7.59688 3.41627 6.77462C3.77664 5.95236 4.30321 5.2135 4.96288 4.60455C5.81042 3.80338 6.86439 3.25419 8.0066 3.01853C8.45661 2.92089 8.92364 2.89325 9.32622 2.84192Z" fill="white"/>
<path d="M13.032 9.35315C13.0415 9.87956 12.9338 10.4015 12.7167 10.8811C12.4995 11.3608 12.1784 11.7861 11.7765 12.1263C11.5698 12.2969 11.3493 12.4501 11.1173 12.5844C11.056 12.6341 10.9848 12.67 10.9084 12.6898C10.8321 12.7096 10.7523 12.7128 10.6746 12.6991C10.5969 12.6855 10.5231 12.6552 10.4581 12.6106C10.393 12.5659 10.3384 12.5077 10.2978 12.4401C10.2572 12.3725 10.2315 12.2969 10.2227 12.2185C10.2138 12.1401 10.2219 12.0607 10.2463 11.9857C10.2708 11.9107 10.311 11.8418 10.3644 11.7837C10.4178 11.7256 10.483 11.6796 10.5557 11.6489C11.0303 11.3908 11.4164 10.9961 11.6641 10.516C11.8419 10.1535 11.9314 9.75405 11.9254 9.35036C11.9194 8.94666 11.818 8.5501 11.6296 8.19304C11.4411 7.83597 11.1709 7.52852 10.841 7.29577C10.5111 7.06301 10.1309 6.91153 9.7313 6.85372C9.375 6.80154 9.01167 6.8259 8.66552 6.92514C8.31937 7.02438 7.99834 7.19623 7.72381 7.42927C7.44928 7.6623 7.22756 7.95117 7.07341 8.27661C6.91927 8.60205 6.83625 8.95657 6.82986 9.31661C6.80819 9.75908 6.90683 10.1992 7.11532 10.5901C7.3238 10.9809 7.63432 11.308 8.01386 11.5365C8.10035 11.5923 8.19437 11.6392 8.2803 11.6966C8.39857 11.7715 8.48356 11.8889 8.51767 12.0246C8.55178 12.1604 8.53242 12.304 8.46357 12.4259C8.39473 12.5477 8.28167 12.6384 8.14781 12.6792C8.01394 12.7201 7.86949 12.7079 7.74436 12.6452C7.1195 12.341 6.59849 11.8589 6.24677 11.2595C5.78668 10.4902 5.62562 9.57866 5.79431 8.69836C5.96299 7.81806 6.44962 7.03056 7.16148 6.48592C7.87334 5.94128 8.76069 5.67755 9.65447 5.74497C10.5482 5.81238 11.386 6.20625 12.0081 6.85151C12.648 7.52945 13.0129 8.4211 13.032 9.35315Z" fill="white"/>
</svg>