<svg xmlns="http://www.w3.org/2000/svg" width="20" height="24" viewBox="0 0 20 24" fill="none">
  <g clip-path="url(#clip0_2_4853)">
    <path d="M10.2323 17.1373C10.2323 17.5996 10.2367 18.062 10.2294 18.5242C10.2274 18.6513 10.2662 18.7225 10.372 18.788C10.9157 19.1238 11.4518 19.4729 11.996 19.8079C12.1374 19.895 12.1948 19.9996 12.1933 20.1698C12.1869 20.8795 12.188 21.5893 12.193 22.299C12.194 22.4512 12.1466 22.5531 12.022 22.6386C11.4052 23.0617 10.7913 23.4895 10.1806 23.9221C10.0362 24.0243 9.91437 24.0269 9.76904 23.924C9.15813 23.4916 8.54432 23.0638 7.9276 22.6404C7.80583 22.5566 7.74857 22.4583 7.74966 22.3035C7.75468 21.5873 7.75477 20.8711 7.74992 20.1548C7.74546 20.0869 7.76025 20.0191 7.79244 19.9598C7.82464 19.9006 7.87285 19.8524 7.9311 19.8213C8.48988 19.4735 9.0432 19.1162 9.6028 18.7702C9.72261 18.6961 9.77683 18.6185 9.77555 18.4647C9.76828 17.5792 9.77306 16.6936 9.77585 15.8081C9.77608 15.7313 9.76534 15.6286 9.80627 15.5838C9.86629 15.518 9.96949 15.4572 10.0522 15.4601C10.1802 15.4646 10.2362 15.5778 10.2359 15.7114C10.2352 16.0825 10.2345 16.4536 10.2339 16.8248C10.2337 16.9289 10.2337 17.0331 10.2339 17.1373H10.2323ZM11.5187 20.0762C11.0145 19.7573 10.535 19.4499 10.0493 19.1536C10.0033 19.1255 9.90646 19.1471 9.85258 19.1799C9.47984 19.4068 9.11195 19.6427 8.74301 19.8766C8.6453 19.9385 8.54937 20.0034 8.43216 20.0804C8.93894 20.4168 9.41703 20.7379 9.90078 21.0495C9.94166 21.0758 10.0313 21.0585 10.0793 21.0286C10.3211 20.8783 10.5569 20.7175 10.7943 20.5596C11.0303 20.4028 11.2656 20.2451 11.5187 20.0762ZM10.2047 23.3201C10.7146 22.9642 11.1892 22.6371 11.6567 22.2995C11.7036 22.2656 11.7272 22.1679 11.7282 22.0992C11.7346 21.6694 11.7314 21.2394 11.7314 20.8096V20.5117C11.2176 20.8532 10.7428 21.1668 10.2713 21.4858C10.2526 21.5012 10.2373 21.5205 10.2263 21.5424C10.2152 21.5643 10.2088 21.5884 10.2073 21.6131C10.2031 22.1651 10.2046 22.7174 10.2046 23.3202L10.2047 23.3201ZM9.74061 23.3174C9.74061 22.7142 9.74336 22.1509 9.73564 21.5878C9.735 21.5406 9.67163 21.4826 9.62453 21.4498C9.41651 21.305 9.2037 21.1679 8.99271 21.0278C8.74673 20.8646 8.50087 20.7012 8.21947 20.5143C8.21947 20.8275 8.21804 21.0981 8.21985 21.3686C8.22184 21.6611 8.13656 22.0044 8.2555 22.2317C8.37805 22.466 8.69937 22.5894 8.93627 22.7574C9.19237 22.9392 9.45152 23.1165 9.7405 23.3174H9.74061Z" fill="white"/>
    <path d="M19.997 7.24086C19.997 7.59227 19.9919 7.9438 19.9994 8.29501C20.0029 8.45653 19.9437 8.56075 19.8154 8.64888C19.2044 9.06855 18.5963 9.49278 17.9912 9.92158C17.8311 10.0357 17.7029 10.0242 17.548 9.91376C17.0062 9.52703 16.4561 9.15313 15.9139 8.7671C15.816 8.69731 15.7482 8.69719 15.6496 8.76358C15.2397 9.03898 14.8242 9.30553 14.4098 9.57374C14.232 9.6889 14.0963 9.674 14.0188 9.53583C13.9448 9.40372 13.9905 9.2767 14.1581 9.16705C14.5765 8.89322 14.994 8.61778 15.4168 8.3511C15.5205 8.2857 15.561 8.21419 15.5597 8.08678C15.5533 7.47515 15.5664 6.86317 15.5522 6.25182C15.5468 6.01953 15.6245 5.88554 15.8164 5.76948C16.406 5.4131 16.9866 5.04018 17.566 4.66604C17.7116 4.57216 17.8316 4.56676 17.9802 4.66287C18.5805 5.05146 19.1847 5.4336 19.7926 5.8093C19.9387 5.89966 20.0049 6.00826 20.0001 6.18684C19.9903 6.53805 19.997 6.88946 19.997 7.24086ZM16.2289 6.08153C16.7337 6.4169 17.2169 6.74147 17.706 7.05638C17.7466 7.08255 17.8377 7.06295 17.8858 7.03185C18.3269 6.74597 18.7638 6.45312 19.2013 6.16118C19.2376 6.13299 19.2722 6.10254 19.305 6.06999C18.808 5.75661 18.327 5.45191 17.8433 5.15225C17.8226 5.14148 17.7998 5.13564 17.7767 5.13514C17.7535 5.13464 17.7305 5.13949 17.7093 5.14936C17.221 5.45253 16.7358 5.76106 16.2289 6.08153ZM18.0075 9.3231C18.5162 8.96837 18.9895 8.642 19.4569 8.30651C19.5003 8.27522 19.5244 8.18712 19.5253 8.12488C19.5312 7.71499 19.5283 7.30498 19.5283 6.89501C19.5283 6.78231 19.5283 6.66957 19.5283 6.51947C19.0161 6.85981 18.5419 7.17276 18.0712 7.49142C18.0531 7.50707 18.0383 7.52649 18.0278 7.54845C18.0173 7.57042 18.0114 7.59442 18.0104 7.61891C18.0061 8.17135 18.0075 8.72399 18.0075 9.3231ZM17.54 9.32134C17.54 8.71839 17.5433 8.16072 17.5348 7.60319C17.534 7.55042 17.4687 7.4843 17.4177 7.44913C17.1257 7.24814 16.8291 7.0545 16.5339 6.85871C16.3731 6.75199 16.2118 6.64598 16.0201 6.51943C16.0201 7.10622 16.0184 7.65017 16.0235 8.19412C16.0276 8.21846 16.0365 8.24167 16.0496 8.26233C16.0626 8.28298 16.0796 8.30065 16.0995 8.31426C16.564 8.64266 17.0312 8.96664 17.54 9.32134Z" fill="white"/>
    <path d="M19.9968 16.5768C19.997 16.9349 19.9933 17.293 19.9988 17.651C20.001 17.7948 19.9563 17.8974 19.8387 17.9785C19.2125 18.4104 18.5883 18.8452 17.966 19.283C17.8342 19.3757 17.7183 19.3779 17.5863 19.2851C16.964 18.8472 16.3398 18.4124 15.7137 17.9804C15.5946 17.8983 15.5544 17.7956 15.5553 17.653C15.559 17.0151 15.5534 16.3771 15.5597 15.7391C15.5609 15.6113 15.5231 15.5396 15.4146 15.4784C14.9857 15.2358 14.5614 14.9845 14.1366 14.7343C13.9622 14.6316 13.9128 14.5082 13.985 14.3734C14.0571 14.2386 14.1896 14.2138 14.3593 14.312C14.786 14.5589 15.2132 14.8049 15.6353 15.06C15.7404 15.1235 15.816 15.1273 15.9224 15.0583C16.4643 14.7071 17.0148 14.3703 17.5564 14.0184C17.7084 13.9197 17.8309 13.9115 17.9865 14.0126C18.5864 14.4022 19.1907 14.7847 19.7994 15.16C19.9393 15.2467 20.0031 15.3517 19.9992 15.5223C19.991 15.8736 19.9966 16.2253 19.9968 16.5768ZM19.3064 15.4377C19.2921 15.4205 19.2765 15.4046 19.2598 15.39C18.9719 15.2069 18.6841 15.0234 18.3952 14.8421C18.1922 14.7147 17.9864 14.49 17.7837 14.4923C17.5724 14.4946 17.3618 14.7143 17.1537 14.8437C16.8515 15.0315 16.5518 15.2236 16.2293 15.4277L17.7747 16.4546L19.3064 15.4377ZM16.0197 15.8645C16.0197 16.4467 16.0159 16.9794 16.0248 17.5122C16.0258 17.5721 16.0858 17.6491 16.139 17.6871C16.5617 17.9892 16.9891 18.2841 17.4158 18.5799C17.4563 18.6033 17.4982 18.6239 17.5413 18.6416C17.5413 18.2149 17.5128 17.8094 17.5493 17.4104C17.5857 17.0113 17.466 16.7657 17.1165 16.5806C16.7464 16.3848 16.4089 16.1227 16.0197 15.8646V15.8645ZM19.5275 15.891C19.4975 15.8998 19.4682 15.9113 19.44 15.9252C18.9912 16.2219 18.541 16.5166 18.0973 16.8213C18.0711 16.8451 18.0499 16.8744 18.0351 16.9071C18.0203 16.9399 18.0122 16.9755 18.0113 17.0117C18.0043 17.5124 18.0071 18.0135 18.0084 18.5145C18.0123 18.5614 18.0194 18.6079 18.0295 18.6538C18.5155 18.3154 18.9835 17.9909 19.4489 17.6624C19.4687 17.6487 19.4856 17.631 19.4985 17.6103C19.5115 17.5896 19.5202 17.5663 19.5242 17.542C19.5291 16.9976 19.5275 16.4531 19.5275 15.8911V15.891Z" fill="white"/>
    <path d="M0.00317555 7.08678C0.00317555 6.73518 0.00735439 6.38349 0.00133023 6.03201C-0.00126769 5.88007 0.0458722 5.77504 0.175091 5.69453C0.798064 5.30626 1.41874 4.91402 2.03712 4.51782C2.17191 4.43149 2.28652 4.43638 2.41977 4.52174C3.02743 4.91113 3.63763 5.29619 4.25036 5.67692C4.3914 5.76428 4.44615 5.87158 4.44415 6.04136C4.43688 6.67935 4.44479 7.31754 4.43828 7.95558C4.43393 8.00949 4.44463 8.06355 4.4691 8.11131C4.49357 8.15906 4.53076 8.19848 4.57623 8.22484C5.00319 8.5214 5.42511 8.82582 5.84722 9.12986C5.99165 9.23388 6.02794 9.37373 5.95053 9.49484C5.86996 9.62112 5.73155 9.63258 5.5724 9.51972C5.16366 9.22988 4.75376 8.94177 4.35051 8.64388C4.24761 8.56787 4.17909 8.56376 4.07224 8.63997C3.5304 9.02725 2.979 9.40005 2.43713 9.78729C2.28494 9.89604 2.16333 9.8946 2.01167 9.78659C1.41229 9.35988 0.80887 8.93937 0.201409 8.52507C0.0603304 8.4288 -0.00454249 8.31841 0.000314495 8.14124C0.0098402 7.79014 0.00310025 7.43834 0.00317555 7.08678ZM3.77204 5.94544C3.25472 5.61879 2.76552 5.30686 2.27105 5.00415C2.23551 4.98236 2.15433 5.01534 2.10678 5.0446C1.78354 5.24352 1.4634 5.44792 1.14291 5.65134C0.995845 5.74468 0.849872 5.83986 0.681873 5.94806C1.19257 6.28675 1.67586 6.6096 2.16352 6.92569C2.19763 6.94779 2.2727 6.93684 2.31077 6.91192C2.78788 6.60065 3.26172 6.28429 3.77216 5.94544H3.77204ZM3.98202 6.38126C3.47076 6.72054 2.99591 7.03189 2.52715 7.35291C2.48408 7.3824 2.46183 7.4732 2.46088 7.53602C2.45505 7.93273 2.45795 8.32959 2.45799 8.72642V9.18556C2.9738 8.82692 3.45197 8.49585 3.92728 8.16064C3.94311 8.14642 3.95595 8.12895 3.96498 8.10934C3.97401 8.08972 3.97904 8.06838 3.97976 8.04665C3.98327 7.50766 3.98214 6.9688 3.98214 6.38126H3.98202ZM0.473286 6.38467C0.473286 6.96637 0.470086 7.50453 0.478143 8.04254C0.478971 8.09778 0.536276 8.16854 0.585938 8.20391C1.00861 8.50512 1.43538 8.79989 1.86174 9.09531C1.90369 9.11944 1.94713 9.14064 1.99179 9.15876C1.99179 8.57839 1.99292 8.02126 1.98919 7.46416C1.98736 7.44257 1.98117 7.42163 1.97103 7.40269C1.96089 7.38375 1.94703 7.36724 1.93034 7.35424C1.45952 7.03741 0.986019 6.72469 0.4734 6.38467H0.473286Z" fill="white"/>
    <path d="M0.00309786 16.4458C0.00309786 16.0876 0.00750242 15.7293 0.0010641 15.3712C-0.00402988 15.3033 0.0103578 15.2354 0.0424104 15.176C0.0744629 15.1166 0.122742 15.0684 0.181149 15.0375C0.798927 14.6524 1.41432 14.2632 2.02733 13.8699C2.16897 13.7787 2.28633 13.7818 2.42594 13.8718C2.97425 14.2252 3.52912 14.5681 4.0769 14.9219C4.18018 14.9886 4.25702 14.994 4.36459 14.9309C4.75722 14.7007 5.15572 14.481 5.55297 14.2595C5.72876 14.1614 5.85602 14.1819 5.92975 14.3145C6.00595 14.4514 5.94985 14.5844 5.76815 14.6873C5.37195 14.9111 4.97661 15.1366 4.57691 15.3534C4.47355 15.4095 4.43779 15.4773 4.43884 15.597C4.44419 16.2157 4.43346 16.8346 4.44569 17.453C4.4498 17.6616 4.37954 17.7856 4.21384 17.8976C3.61519 18.302 3.02335 18.7179 2.43343 19.1363C2.28938 19.2384 2.16924 19.2445 2.02277 19.1406C1.40695 18.704 0.787984 18.2722 0.165863 17.8451C0.11201 17.8124 0.0680566 17.7646 0.0389737 17.7072C0.00989075 17.6498 -0.00316172 17.5851 0.00129045 17.5205C0.0068628 17.1623 0.00309786 16.804 0.00309786 16.4458ZM0.678331 15.292C1.18707 15.6295 1.66618 15.9489 2.14811 16.2637C2.16786 16.276 2.19 16.2835 2.2129 16.2857C2.23581 16.2879 2.25889 16.2847 2.28046 16.2764C2.77143 15.9571 3.25893 15.6319 3.77166 15.2919C3.26063 14.9686 2.77613 14.6602 2.28848 14.3574C2.26711 14.3478 2.24394 14.3431 2.22065 14.3439C2.19735 14.3446 2.1745 14.3508 2.15376 14.3618C1.67126 14.6619 1.1917 14.9671 0.678331 15.292ZM2.45922 18.5314C2.97252 18.1737 3.44602 17.8474 3.91338 17.5119C3.95634 17.4811 3.97829 17.3914 3.97908 17.3287C3.98469 16.8802 3.98225 16.4316 3.98236 15.983V15.7268C3.4697 16.0671 2.9959 16.3804 2.52451 16.6975C2.50733 16.7101 2.49289 16.7263 2.48212 16.7451C2.47135 16.7638 2.46448 16.7847 2.46197 16.8064C2.45821 17.3637 2.45953 17.921 2.45953 18.5314H2.45922ZM0.473095 15.7311C0.473095 16.3083 0.46933 16.8411 0.47814 17.3738C0.479156 17.4347 0.536876 17.5136 0.589927 17.5516C1.01757 17.8575 1.45018 18.156 1.88215 18.4555C1.91751 18.4747 1.95439 18.4907 1.99239 18.5034C1.99239 17.9316 1.99378 17.3794 1.98968 16.8271C1.98855 16.8026 1.98247 16.7785 1.97185 16.7565C1.96122 16.7345 1.94627 16.7151 1.92797 16.6995C1.45729 16.3817 0.983304 16.0692 0.473095 15.7311Z" fill="white"/>
    <path d="M12.1905 2.66056C12.1905 3.012 12.1852 3.36356 12.193 3.71482C12.1964 3.86918 12.1416 3.96839 12.0187 4.05261C11.4596 4.43598 10.9064 4.82881 10.347 5.21148C10.2461 5.28052 10.2059 5.35207 10.2103 5.4798C10.2247 5.89591 10.2254 6.31256 10.231 6.72903C10.2342 6.97516 10.1681 7.082 10.0111 7.0872C9.85228 7.09248 9.77675 6.98432 9.77178 6.74569C9.76305 6.32931 9.74919 5.91292 9.74791 5.4965C9.74757 5.36569 9.71026 5.28525 9.60205 5.21155C9.04696 4.83366 8.5002 4.44263 7.94484 4.06536C7.80222 3.96839 7.74748 3.85412 7.74906 3.67875C7.75614 2.98243 7.75621 2.2861 7.74928 1.58978C7.7477 1.42071 7.80226 1.31157 7.94292 1.22429C8.55565 0.844262 9.16546 0.459174 9.77235 0.0690254C9.9123 -0.0209487 10.0298 -0.0238418 10.1709 0.0669147C10.783 0.460558 11.398 0.84927 12.0158 1.23305C12.1446 1.31313 12.1954 1.41379 12.1925 1.56749C12.1859 1.93157 12.1906 2.29608 12.1905 2.66056ZM8.42719 1.4889C8.93698 1.82743 9.40988 2.14543 9.88877 2.45303C9.93444 2.48237 10.0325 2.47004 10.0828 2.43773C10.5035 2.16754 10.9187 1.88823 11.3354 1.6113C11.39 1.575 11.4431 1.53642 11.5157 1.48588C11.007 1.16385 10.5272 0.85845 10.0445 0.558015C10.024 0.546984 10.0014 0.540827 9.97835 0.539988C9.95528 0.539149 9.93232 0.543653 9.91113 0.553168C9.424 0.855833 8.94018 1.16397 8.42719 1.4889ZM11.7305 1.92406C11.2195 2.26306 10.7485 2.57121 10.2843 2.89007C10.2365 2.92289 10.208 3.01955 10.2071 3.08707C10.2009 3.56855 10.2036 4.05019 10.2049 4.53174C10.2049 4.58506 10.2143 4.63838 10.2218 4.71838C10.7218 4.37053 11.1951 4.04252 11.666 3.71079C11.683 3.69801 11.6972 3.68172 11.7078 3.66293C11.7185 3.64415 11.7253 3.62328 11.7278 3.60165C11.7316 3.05765 11.7303 2.51362 11.7303 1.92406H11.7305ZM8.24059 1.94233C8.23167 1.97378 8.22522 2.00594 8.22131 2.03848C8.22026 2.54547 8.21574 3.05253 8.22538 3.55932C8.22662 3.62582 8.28747 3.71114 8.3444 3.75268C8.65645 3.9804 8.97584 4.19731 9.29282 4.41771C9.4307 4.51359 9.56884 4.609 9.70766 4.70523C9.72611 4.67367 9.73711 4.66365 9.73714 4.65356C9.73914 4.11415 9.74317 3.57473 9.73692 3.0354C9.73221 3.0024 9.72107 2.97074 9.70418 2.94236C9.68729 2.91399 9.665 2.8895 9.63869 2.87039C9.4435 2.72995 9.2403 2.60152 9.03977 2.4691C8.77795 2.29632 8.51605 2.12396 8.24044 1.94233H8.24059Z" fill="white"/>
    <path d="M12.919 10.2732C13.7586 10.2776 14.4017 10.9638 14.3982 11.8517C14.3947 12.7323 13.7375 13.4156 12.8986 13.4108C12.0657 13.4061 11.4252 12.7124 11.4309 11.8214C11.4367 10.9484 12.0898 10.2689 12.919 10.2732ZM11.878 11.8337C11.8753 12.4568 12.3234 12.9421 12.9053 12.9464C13.4861 12.9506 13.9483 12.4658 13.9509 11.8499C13.9535 11.2302 13.4985 10.7389 12.9209 10.7376C12.3354 10.7363 11.8808 11.2139 11.8781 11.8337H11.878Z" fill="white"/>
    <path d="M5.79242 11.8418C5.79242 11.4317 5.79084 11.0215 5.79295 10.6113C5.79412 10.3833 5.86682 10.3071 6.08686 10.3044C6.36254 10.3011 6.63824 10.301 6.91397 10.3041C7.58555 10.3124 8.05303 10.706 8.19535 11.3889C8.27796 11.7854 8.26851 12.1808 8.11572 12.5589C7.90894 13.0707 7.53115 13.3443 6.99726 13.3664C6.6907 13.3791 6.38328 13.3711 6.07624 13.3688C5.87047 13.3672 5.79483 13.2891 5.79333 13.0724C5.7905 12.6622 5.7925 12.252 5.79242 11.8418ZM6.248 12.8951C6.53822 12.8951 6.81363 12.9149 7.08517 12.8896C7.36571 12.8635 7.57482 12.6936 7.68491 12.4211C7.76439 12.2329 7.80422 12.0293 7.80171 11.8239C7.7992 11.6185 7.75442 11.416 7.67038 11.23C7.57249 11.0042 7.40227 10.8299 7.16755 10.8043C6.86691 10.7715 6.56043 10.7965 6.248 10.7965V12.8951Z" fill="white"/>
    <path d="M9.92417 10.2857C9.95779 10.3157 10.0696 10.3675 10.102 10.452C10.434 11.3213 10.7546 12.1955 11.0746 13.0698C11.1235 13.2032 11.0836 13.3174 10.9494 13.3727C10.8141 13.4284 10.7143 13.3679 10.6598 13.2383C10.5924 13.0777 10.5466 12.9067 10.4718 12.7503C10.4542 12.7176 10.4298 12.6893 10.4005 12.6675C10.3711 12.6457 10.3375 12.631 10.302 12.6243C10.0021 12.6113 9.70131 12.6232 9.40112 12.6149C9.29155 12.6119 9.2463 12.6593 9.21482 12.7581C9.16768 12.906 9.10962 13.0501 9.05589 13.1957C9.00247 13.3404 8.91282 13.433 8.75506 13.3748C8.59731 13.3166 8.57863 13.187 8.63262 13.04C8.9451 12.1906 9.25824 11.3414 9.57205 10.4924C9.62224 10.3563 9.70899 10.2786 9.92417 10.2857ZM9.87296 11.1088H9.82729C9.70127 11.4531 9.57503 11.7973 9.44517 12.1525H10.2576C10.1247 11.7917 9.99879 11.4504 9.873 11.109L9.87296 11.1088Z" fill="white"/>
    <path d="M14.9964 18.4786C14.967 18.5146 14.9253 18.6018 14.8577 18.6426C14.247 19.0112 13.632 19.3723 13.0174 19.734C12.8828 19.8132 12.7563 19.7971 12.6792 19.6519C12.6015 19.5053 12.6616 19.3901 12.795 19.3111C13.4033 18.9512 14.0104 18.589 14.6205 18.2324C14.8085 18.1224 15.0039 18.2298 14.9964 18.4786Z" fill="white"/>
    <path d="M5.07211 18.0471C5.1711 18.0945 5.23556 18.1189 5.29392 18.1542C5.87168 18.504 6.44881 18.8549 7.0253 19.2069C7.2038 19.3158 7.25441 19.4508 7.17191 19.5852C7.0933 19.7134 6.96389 19.7292 6.79269 19.6254C6.20432 19.2688 5.61726 18.9098 5.0287 18.5535C4.91402 18.4841 4.83446 18.3871 4.88793 18.253C4.92064 18.171 5.01022 18.1134 5.07211 18.0471Z" fill="white"/>
    <path d="M7.29458 4.35741C7.26446 4.39461 7.22037 4.48686 7.14902 4.53004C6.53907 4.89929 5.92423 5.26024 5.31011 5.62221C5.18209 5.69779 5.05833 5.67909 4.9836 5.54738C4.90502 5.40889 4.94594 5.28242 5.08296 5.20113C5.69603 4.83733 6.30861 4.47254 6.92428 4.11362C7.10651 4.00706 7.28923 4.10635 7.29458 4.35741Z" fill="white"/>
    <path d="M2.44859 11.8377C2.44859 12.1947 2.45032 12.5518 2.44791 12.9089C2.44663 13.0967 2.36192 13.2025 2.22141 13.2042C2.07931 13.2058 1.98884 13.0985 1.98914 12.9147C1.99042 12.1939 1.9936 11.4732 1.9987 10.7525C2.00009 10.5664 2.09076 10.4628 2.23797 10.4714C2.40213 10.481 2.46407 10.5907 2.46471 10.7469C2.46621 11.1105 2.4652 11.4741 2.4652 11.8377H2.44859Z" fill="white"/>
    <path d="M15.1665 5.48669C15.1638 5.69981 15.0301 5.81181 14.8848 5.77425C14.8372 5.75872 14.7918 5.73634 14.7502 5.70775C14.1727 5.35724 13.5956 5.0062 13.0187 4.65462C13.0026 4.6448 12.9864 4.63479 12.9706 4.6245C12.8404 4.54012 12.7845 4.42339 12.8682 4.27955C12.9514 4.13661 13.0776 4.1305 13.2098 4.21086C13.8141 4.57803 14.4194 4.94344 15.0201 5.31687C15.0914 5.36123 15.1366 5.45086 15.1665 5.48669Z" fill="white"/>
    <path d="M17.5669 12.0129C17.5669 11.6622 17.5655 11.3116 17.5675 10.9609C17.5686 10.7639 17.6588 10.6452 17.8047 10.6563C17.977 10.6694 18.0329 10.7878 18.0316 10.9525C18.0258 11.6731 18.021 12.3938 18.0173 13.1146C18.0165 13.2761 17.9491 13.3779 17.7907 13.3905C17.6497 13.4017 17.559 13.2879 17.5579 13.1037C17.5556 12.7399 17.5572 12.3765 17.5572 12.0129H17.5669Z" fill="white"/>
    <path d="M16.0117 12.0164C16.0117 12.2698 16.0109 12.5233 16.012 12.7767C16.0127 12.941 15.9555 13.0592 15.7826 13.0715C15.6338 13.0821 15.5436 12.9678 15.5443 12.7677C15.5461 12.2479 15.5505 11.728 15.5577 11.2082C15.5601 11.0229 15.6509 10.9167 15.7918 10.9196C15.9315 10.9224 16.0168 11.0318 16.0181 11.2169C16.0199 11.4833 16.0186 11.7497 16.0186 12.0162L16.0117 12.0164Z" fill="white"/>
    <path d="M8.05304 6.32363C8.02612 6.35884 7.98779 6.44792 7.92178 6.48837C7.4696 6.76556 7.01225 7.03381 6.55505 7.30205C6.42798 7.37637 6.30531 7.35994 6.23095 7.22334C6.15358 7.08122 6.19767 6.95967 6.33427 6.87862C6.78487 6.61128 7.23413 6.34151 7.68763 6.07957C7.86998 5.97407 8.05104 6.07573 8.05304 6.32363Z" fill="white"/>
    <path d="M13.8966 7.14011C13.8987 7.36344 13.7199 7.49163 13.5655 7.40162C13.0857 7.12168 12.6116 6.83095 12.1409 6.53478C12.0228 6.46045 12.0071 6.3287 12.0862 6.20962C12.1652 6.09054 12.2802 6.07043 12.4006 6.14241C12.7258 6.33695 13.0491 6.53513 13.373 6.7319C13.5026 6.8106 13.6377 6.88125 13.7594 6.9715C13.8247 7.01989 13.8667 7.10204 13.8966 7.14011Z" fill="white"/>
    <path d="M4.46526 11.8447C4.46526 12.1109 4.46809 12.3773 4.46428 12.6435C4.46165 12.8281 4.37113 12.9351 4.23051 12.9346C4.08796 12.934 3.99669 12.8289 3.99707 12.6426C3.99839 12.1101 4.0046 11.5775 4.01138 11.045C4.01337 10.8846 4.08747 10.7813 4.2508 10.7873C4.40295 10.7929 4.47046 10.8939 4.4711 11.0458C4.47227 11.312 4.47144 11.5783 4.47144 11.8447H4.46526Z" fill="white"/>
    <path d="M6.33552 16.3944C6.43006 16.4382 6.48917 16.459 6.54203 16.491C6.96922 16.7492 7.39562 17.0088 7.82123 17.2698C7.9852 17.3706 8.0332 17.5085 7.95715 17.6371C7.88422 17.7603 7.74799 17.7837 7.59332 17.6903C7.15525 17.4256 6.71466 17.165 6.28616 16.8844C6.21191 16.8358 6.15468 16.6963 6.15871 16.6019C6.1618 16.5296 6.27358 16.4622 6.33552 16.3944Z" fill="white"/>
    <path d="M13.7669 16.7918C13.7396 16.8276 13.7015 16.9175 13.6353 16.9581C13.1832 17.2354 12.7258 17.5035 12.2686 17.7718C12.1409 17.8467 12.0165 17.8276 11.9435 17.6937C11.8676 17.5547 11.9076 17.4302 12.0461 17.3483C12.497 17.0816 12.946 16.8115 13.3995 16.5496C13.5811 16.4449 13.7644 16.5467 13.7669 16.7918Z" fill="white"/>
    <path d="M11.5187 20.0762C11.2657 20.2452 11.0303 20.4028 10.7944 20.5596C10.557 20.7175 10.3212 20.8783 10.0793 21.0286C10.0313 21.0585 9.94169 21.0758 9.90081 21.0495C9.41706 20.7379 8.93897 20.417 8.43219 20.0804C8.5494 20.0034 8.64533 19.9385 8.74304 19.8766C9.11202 19.6428 9.47987 19.4069 9.85261 19.1799C9.90649 19.1471 10.0032 19.1255 10.0493 19.1536C10.535 19.4499 11.0145 19.7573 11.5187 20.0762Z" fill="white"/>
    <path d="M10.2046 23.3202C10.2046 22.7174 10.2031 22.1652 10.2074 21.613C10.2089 21.5883 10.2153 21.5642 10.2264 21.5422C10.2374 21.5203 10.2527 21.501 10.2714 21.4857C10.7429 21.1668 11.2177 20.8532 11.7315 20.5116V20.8094C11.7315 21.2393 11.7347 21.6692 11.7283 22.0991C11.7273 22.1677 11.7036 22.2655 11.6568 22.2994C11.1891 22.6371 10.7145 22.9642 10.2046 23.3202Z" fill="white"/>
    <path d="M9.74053 23.3174C9.45155 23.1165 9.1924 22.9392 8.93619 22.7574C8.69928 22.5892 8.37797 22.466 8.25542 22.2317C8.13648 22.0044 8.22176 21.6611 8.21976 21.3686C8.21795 21.0981 8.21939 20.8275 8.21939 20.5143C8.50079 20.7012 8.7465 20.8646 8.99262 21.0278C9.20347 21.1679 9.41643 21.3051 9.62445 21.4498C9.67162 21.4826 9.73491 21.5406 9.73555 21.5878C9.74327 22.1509 9.74053 22.7141 9.74053 23.3174Z" fill="white"/>
    <path d="M16.2289 6.08153C16.7358 5.76106 17.221 5.45253 17.7093 5.14936C17.7305 5.13949 17.7535 5.13464 17.7767 5.13514C17.7998 5.13564 17.8226 5.14148 17.8433 5.15225C18.327 5.4519 18.8078 5.75661 19.305 6.06999C19.2722 6.10254 19.2376 6.13299 19.2013 6.16117C18.7638 6.45312 18.3269 6.74596 17.8859 7.03185C17.8378 7.06314 17.7465 7.08271 17.706 7.05638C17.2169 6.74147 16.7337 6.41678 16.2289 6.08153Z" fill="white"/>
    <path d="M18.0075 9.3231C18.0075 8.72399 18.0061 8.17135 18.0102 7.61879C18.0112 7.5943 18.0171 7.5703 18.0276 7.54834C18.0381 7.52638 18.0529 7.50694 18.071 7.4913C18.5419 7.17283 19.0161 6.85965 19.5281 6.51935C19.5281 6.66957 19.5281 6.78231 19.5281 6.89489C19.5281 7.30486 19.531 7.71487 19.5251 8.12476C19.5242 8.187 19.5001 8.27525 19.4567 8.30639C18.9895 8.64199 18.5162 8.96836 18.0075 9.3231Z" fill="white"/>
    <path d="M17.54 9.32135C17.0312 8.96666 16.564 8.64252 16.0995 8.31427C16.0796 8.30067 16.0626 8.283 16.0496 8.26234C16.0365 8.24168 16.0276 8.21847 16.0235 8.19413C16.0184 7.65018 16.0201 7.10619 16.0201 6.51944C16.2118 6.64599 16.3731 6.75201 16.534 6.85872C16.8291 7.05452 17.1258 7.24815 17.4177 7.44915C17.4688 7.48435 17.534 7.55043 17.5348 7.6032C17.5433 8.16073 17.54 8.71841 17.54 9.32135Z" fill="white"/>
    <path d="M19.3064 15.4377L17.7747 16.4548L16.2293 15.4279C16.5518 15.2238 16.8515 15.0317 17.1536 14.8439C17.3618 14.7145 17.5724 14.4948 17.7837 14.4925C17.9864 14.4903 18.1922 14.7149 18.3951 14.8423C18.6841 15.0236 18.9718 15.2071 19.2598 15.3901C19.2765 15.4047 19.2921 15.4206 19.3064 15.4377Z" fill="white"/>
    <path d="M16.0196 15.8647C16.4088 16.1228 16.7463 16.3849 17.1164 16.5808C17.466 16.7659 17.5857 17.0116 17.5492 17.4105C17.5128 17.8095 17.5412 18.2151 17.5412 18.6418C17.4982 18.6241 17.4562 18.6035 17.4158 18.5801C16.989 18.2842 16.5617 17.9894 16.139 17.6872C16.0858 17.6492 16.0258 17.5722 16.0248 17.5123C16.0159 16.9797 16.0196 16.4469 16.0196 15.8647Z" fill="white"/>
    <path d="M19.5275 15.8911C19.5275 16.4532 19.5291 16.9977 19.5241 17.542C19.5201 17.5663 19.5114 17.5896 19.4984 17.6103C19.4855 17.631 19.4686 17.6487 19.4488 17.6624C18.9834 17.991 18.5153 18.3154 18.0294 18.6538C18.0193 18.6079 18.0122 18.5614 18.0083 18.5145C18.007 18.0136 18.0042 17.5126 18.0112 17.0117C18.0121 16.9755 18.0202 16.9399 18.035 16.9072C18.0498 16.8744 18.071 16.8451 18.0972 16.8213C18.5409 16.5166 18.9911 16.2219 19.4399 15.9252C19.4681 15.9113 19.4974 15.8999 19.5275 15.8911Z" fill="white"/>
    <path d="M3.77215 5.94544C3.26171 6.28429 2.78787 6.60081 2.31072 6.91192C2.2725 6.93684 2.19758 6.94779 2.16347 6.92569C1.67596 6.60961 1.19252 6.28676 0.681824 5.94806C0.849823 5.83986 0.995795 5.74465 1.14286 5.65135C1.4635 5.44793 1.78364 5.24353 2.10673 5.04461C2.15428 5.01535 2.23546 4.98237 2.271 5.00416C2.76562 5.30686 3.25482 5.61876 3.77215 5.94544Z" fill="white"/>
    <path d="M3.98211 6.38126C3.98211 6.96879 3.98324 7.50766 3.97985 8.04652C3.97914 8.06826 3.9741 8.0896 3.96507 8.10921C3.95604 8.12883 3.9432 8.14629 3.92737 8.16051C3.45199 8.49584 2.97386 8.82691 2.45808 9.18543V8.7263C2.45808 8.32947 2.45514 7.9326 2.46097 7.5359C2.46192 7.47307 2.48417 7.38228 2.52724 7.35278C2.996 7.03189 3.47085 6.72054 3.98211 6.38126Z" fill="white"/>
    <path d="M0.473403 6.38467C0.986022 6.7247 1.45952 7.03742 1.9305 7.35424C1.94718 7.36725 1.96104 7.38376 1.97118 7.40269C1.98132 7.42163 1.98751 7.44258 1.98935 7.46417C1.99311 8.02126 1.99194 8.5784 1.99194 9.15877C1.94729 9.14064 1.90384 9.11944 1.8619 9.09532C1.43554 8.79989 1.00876 8.50497 0.586092 8.20391C0.53643 8.1687 0.479125 8.09778 0.478296 8.04254C0.470201 7.50454 0.473403 6.96638 0.473403 6.38467Z" fill="white"/>
    <path d="M0.678345 15.292C1.19172 14.9671 1.67128 14.6619 2.15377 14.3618C2.17452 14.3508 2.19736 14.3446 2.22066 14.3439C2.24396 14.3431 2.26712 14.3478 2.28849 14.3574C2.77615 14.6602 3.26064 14.9686 3.77168 15.2919C3.25895 15.6319 2.77144 15.9569 2.28047 16.2764C2.25891 16.2847 2.23582 16.2879 2.21292 16.2857C2.19001 16.2835 2.16787 16.276 2.14813 16.2638C1.66619 15.9489 1.18693 15.6294 0.678345 15.292Z" fill="white"/>
    <path d="M2.45952 18.5314C2.45952 17.9211 2.45832 17.3637 2.46227 16.8064C2.46478 16.7847 2.47164 16.7638 2.48242 16.7451C2.49319 16.7263 2.50763 16.7101 2.52481 16.6975C2.9962 16.3803 3.46985 16.0671 3.98266 15.7267V15.983C3.98266 16.4316 3.98499 16.8802 3.97938 17.3287C3.97859 17.3913 3.95679 17.4812 3.91368 17.5119C3.44621 17.8474 2.97271 18.1737 2.45952 18.5314Z" fill="white"/>
    <path d="M0.473125 15.731C0.983334 16.0693 1.45732 16.3818 1.928 16.6995C1.9463 16.7151 1.96125 16.7345 1.97188 16.7565C1.9825 16.7785 1.98858 16.8025 1.98971 16.8271C1.99381 17.3794 1.99242 17.9316 1.99242 18.5034C1.95442 18.4907 1.91754 18.4747 1.88218 18.4555C1.45021 18.156 1.0176 17.8575 0.589957 17.5515C0.536907 17.5136 0.479187 17.4346 0.47817 17.3737C0.469435 16.8409 0.473125 16.3081 0.473125 15.731Z" fill="white"/>
    <path d="M8.42719 1.48889C8.94033 1.16397 9.42415 0.85583 9.91113 0.553165C9.93232 0.54365 9.95528 0.539146 9.97835 0.539985C10.0014 0.540824 10.024 0.546981 10.0445 0.558012C10.5272 0.858447 11.007 1.16385 11.5157 1.48588C11.4431 1.53642 11.39 1.575 11.3354 1.6113C10.9188 1.88822 10.5033 2.16753 10.0828 2.43773C10.0325 2.47004 9.93443 2.48236 9.88876 2.45302C9.40961 2.14543 8.93683 1.82743 8.42719 1.48889Z" fill="white"/>
    <path d="M11.7304 1.92407C11.7304 2.51364 11.7316 3.05767 11.7276 3.60166C11.7251 3.6233 11.7184 3.64416 11.7077 3.66295C11.6971 3.68173 11.6828 3.69802 11.6659 3.7108C11.195 4.04253 10.7217 4.37055 10.2217 4.71839C10.2142 4.6384 10.205 4.58508 10.2048 4.53176C10.2035 4.0502 10.2007 3.56856 10.207 3.08708C10.2079 3.01956 10.2364 2.92278 10.2842 2.89008C10.7484 2.57138 11.2194 2.26308 11.7304 1.92407Z" fill="white"/>
    <path d="M8.2405 1.94235C8.5161 2.12398 8.778 2.29634 9.03967 2.46913C9.2402 2.60155 9.44341 2.72998 9.63859 2.87042C9.66491 2.88953 9.68719 2.91402 9.70409 2.94239C9.72098 2.97076 9.73211 3.00242 9.73682 3.03542C9.74307 3.57476 9.73904 4.11417 9.73705 4.65358C9.73705 4.66368 9.72602 4.67369 9.70757 4.70526C9.56875 4.60903 9.43061 4.51358 9.29273 4.41773C8.97574 4.19734 8.65642 3.98042 8.3443 3.75271C8.28737 3.71116 8.22652 3.62573 8.22528 3.55934C8.21564 3.05255 8.22016 2.54549 8.22122 2.03851C8.22512 2.00597 8.23157 1.97381 8.2405 1.94235Z" fill="white"/>
  </g>
  <defs>
    <clipPath id="clip0_2_4853">
      <rect width="20" height="24" fill="white"/>
    </clipPath>
  </defs>
</svg>