<svg xmlns="http://www.w3.org/2000/svg" width="14" height="25" viewBox="0 0 14 25" fill="none">
  <path d="M9.89663 11.0434L4.78658 9.54822C4.19514 9.37788 3.7835 8.8243 3.7835 8.2092C3.7835 7.43796 4.40806 6.8134 5.1793 6.8134H8.3163C8.89354 6.8134 9.46133 6.98846 9.93448 7.31021C10.2231 7.5042 10.6111 7.45688 10.8571 7.21558L12.5037 5.60686C12.8396 5.28038 12.7923 4.73626 12.4185 4.44763C11.2593 3.53918 9.81146 3.03291 8.32576 3.02818V0.757044C8.32576 0.34067 7.98509 0 7.56872 0H6.05463C5.63825 0 5.29759 0.34067 5.29759 0.757044V3.02818H5.1793C2.16531 3.02818 -0.257226 5.61632 0.0219339 8.68708C0.220658 10.8683 1.88616 12.6426 3.98695 13.2577L8.83677 14.6772C9.42821 14.8523 9.83985 15.4011 9.83985 16.0162C9.83985 16.7875 9.21529 17.412 8.44405 17.412H5.30705C4.7298 17.412 4.16202 17.2369 3.68887 16.9152C3.40024 16.7212 3.01226 16.7685 2.76622 17.0098L1.11965 18.6186C0.783709 18.945 0.831025 19.4892 1.20482 19.7778C2.36404 20.6862 3.81189 21.1925 5.29759 21.1972V23.4684C5.29759 23.8847 5.63825 24.2254 6.05463 24.2254H7.56872C7.98509 24.2254 8.32576 23.8847 8.32576 23.4684V21.1878C10.5307 21.1452 12.5983 19.8346 13.327 17.748C14.3443 14.8333 12.6362 11.843 9.89663 11.0434Z" fill="white"/>
</svg>