<svg xmlns="http://www.w3.org/2000/svg" width="20" height="20" viewBox="0 0 20 20" fill="none">
  <path d="M19.3564 0.731679C19.3108 0.519719 19.1012 0.310155 18.8886 0.26465C17.6548 0 16.6888 0 15.7269 0C11.7711 0 9.39879 2.1154 7.62775 4.905H3.63421C3.00777 4.9056 2.27167 5.36005 1.99078 5.91989L0.0963994 9.70642C0.0378563 9.83555 0.00510964 9.97487 0 10.1166C8.80854e-05 10.3605 0.0970424 10.5944 0.269546 10.7669C0.44205 10.9393 0.675983 11.0362 0.919911 11.0363H4.89796L4.03672 11.8973C3.60121 12.3326 3.53871 13.1334 4.03672 13.6313L5.98739 15.582C6.4149 16.0107 7.21962 16.0862 7.72243 15.582L8.58366 14.721V18.7003C8.58375 18.9442 8.6807 19.1782 8.85321 19.3506C9.02571 19.5231 9.25964 19.62 9.50357 19.62C9.64529 19.6148 9.78464 19.582 9.91387 19.5236L13.6972 17.6309C14.2578 17.3513 14.713 16.6154 14.713 15.9886V11.9865C17.4949 10.2118 19.6193 7.83231 19.6193 3.8973C19.6229 2.9315 19.6229 1.96571 19.3564 0.731679ZM14.7165 6.43781C14.4134 6.43774 14.1171 6.34778 13.8651 6.17931C13.613 6.01084 13.4166 5.77142 13.3007 5.49133C13.1847 5.21124 13.1544 4.90305 13.2136 4.60574C13.2728 4.30842 13.4188 4.03534 13.6332 3.82101C13.8476 3.60668 14.1207 3.46073 14.418 3.40161C14.7153 3.3425 15.0235 3.37288 15.3036 3.4889C15.5836 3.60493 15.823 3.80139 15.9914 4.05345C16.1598 4.30552 16.2497 4.60185 16.2497 4.905C16.2495 5.31152 16.0879 5.70132 15.8004 5.98873C15.5129 6.27615 15.1231 6.43768 14.7165 6.43781Z" fill="white"/>
</svg>