<svg xmlns="http://www.w3.org/2000/svg" width="19" height="19" viewBox="0 0 19 19" fill="none">
  <g clip-path="url(#clip0_2_4900)">
    <path d="M18.9996 0.690793C18.9767 0.763992 18.9412 0.899514 18.8923 1.03005C17.0084 6.05827 15.1239 11.0862 13.2386 16.1138C12.9445 16.898 12.6527 17.6829 12.3547 18.4656C12.3137 18.5776 12.2555 18.6826 12.1823 18.7767C12.1233 18.8492 12.0483 18.907 11.9633 18.9457C11.8782 18.9844 11.7854 19.0028 11.692 18.9997C11.5986 18.9966 11.5073 18.9719 11.425 18.9276C11.3428 18.8833 11.2718 18.8205 11.2178 18.7443C11.1591 18.6566 11.1079 18.5641 11.0649 18.4678C9.95891 16.1805 8.85459 13.8924 7.75193 11.6035C7.67932 11.4448 7.55102 11.3182 7.39136 11.2477C5.08974 10.1404 2.7907 9.02772 0.494265 7.90978C0.333053 7.83117 0.162325 7.70051 0.0787585 7.54853C-0.120473 7.18621 0.0679326 6.82427 0.509574 6.65723C1.51637 6.27642 2.52407 5.89801 3.53268 5.522C8.34126 3.71799 13.1498 1.9141 17.9584 0.110317C18.0428 0.075127 18.1292 0.0448232 18.2171 0.0195572C18.6176 -0.0800448 18.9971 0.215546 18.9996 0.690793ZM16.7098 3.26124L16.6655 3.23775C16.6402 3.26022 16.6136 3.28138 16.5897 3.30545C14.0579 5.83883 11.5253 8.37146 8.99193 10.9033C8.88676 11.0083 8.90837 11.0848 8.96204 11.1958C9.81611 12.9637 10.6684 14.7325 11.5188 16.5021C11.5516 16.5704 11.588 16.637 11.6489 16.755C13.348 12.2252 15.029 7.7432 16.7099 3.26124H16.7098ZM2.26518 7.34729C2.33213 7.39167 2.35366 7.40987 2.37823 7.42171C4.20344 8.30155 6.02835 9.18206 7.85296 10.0632C7.96998 10.1199 8.0283 10.0793 8.10438 10.0031C10.6259 7.47925 13.1481 4.95613 15.671 2.43378C15.7034 2.39737 15.7335 2.35898 15.7611 2.31883L15.7351 2.29154L2.26518 7.34729Z" fill="white"/>
  </g>
  <defs>
    <clipPath id="clip0_2_4900">
      <rect width="19" height="19" fill="white"/>
    </clipPath>
  </defs>
</svg>