<svg xmlns="http://www.w3.org/2000/svg" width="19" height="21" viewBox="0 0 19 21" fill="none">
  <g clip-path="url(#clip0_2_4894)">
    <path d="M9.33047 21.0001C6.37128 19.3473 3.41126 17.6959 0.450401 16.0458C0.128914 15.8672 -0.000677611 15.6321 2.66317e-06 15.2806C0.00612513 12.0866 0.00612513 8.89267 2.66317e-06 5.69874C-0.000677611 5.34554 0.136738 5.11565 0.45726 4.93768C3.33648 3.33895 6.21176 1.73357 9.08308 0.121569C9.37146 -0.0400626 9.62996 -0.0404459 9.91755 0.120692C12.7965 1.73354 15.6778 3.3424 18.5615 4.94727C18.8655 5.11636 19.0001 5.34154 18.9995 5.67829C18.9948 8.88592 18.9949 12.0936 18.9999 15.3012C19.0005 15.6469 18.861 15.874 18.5502 16.0468C15.6718 17.6469 12.7961 19.2515 9.92311 20.8607C9.83892 20.9077 9.75428 20.9539 9.66987 21.0003L9.33047 21.0001ZM1.27659 10.4896C1.27659 11.9461 1.27943 13.4025 1.27268 14.8589C1.27189 15.0225 1.3228 15.1118 1.4711 15.1942C4.08554 16.6476 6.69726 18.1054 9.30627 19.5679C9.44493 19.6456 9.54374 19.6547 9.68824 19.5737C12.3092 18.1038 14.9331 16.6387 17.5599 15.1786C17.6908 15.1058 17.7268 15.0251 17.7266 14.8881C17.723 11.9547 17.7231 9.02127 17.7269 6.08785C17.7331 6.0318 17.7211 5.97527 17.6925 5.92613C17.664 5.87699 17.6203 5.83769 17.5675 5.81371C14.9353 4.34905 12.3051 2.88086 9.67713 1.40914C9.55287 1.33956 9.46171 1.33238 9.33212 1.40531C6.70471 2.87797 4.07483 4.34647 1.44247 5.81081C1.38669 5.836 1.34043 5.87742 1.31015 5.92927C1.27988 5.98112 1.2671 6.04081 1.27359 6.10002C1.27852 7.56288 1.27659 9.02617 1.27659 10.4895V10.4896Z" fill="white"/>
    <path d="M5.84428 10.873C5.84428 10.2127 5.84428 9.5524 5.84428 8.89209C5.84428 8.769 5.84173 8.64586 5.84524 8.52283C5.8551 8.17495 6.10834 7.91671 6.44864 7.90443C6.61302 7.89719 6.77393 7.95174 6.89766 8.05666C7.02139 8.16158 7.09835 8.30872 7.11242 8.46729C7.11732 8.52177 7.11887 8.5765 7.11707 8.63117C7.1173 9.86888 7.1173 11.1066 7.11707 12.3443C7.11707 12.8531 6.87897 13.0832 6.35448 13.0844C6.19893 13.0848 6.04314 13.0789 5.88793 13.0856C5.53027 13.1016 5.30403 12.9425 5.17013 12.6251C4.84133 11.848 4.50357 11.0745 4.16899 10.2998C4.14508 10.2338 4.102 10.1759 4.0449 10.1329V10.4322C4.0449 11.0957 4.05056 11.7591 4.0424 12.4221C4.03617 12.9089 3.63152 13.1972 3.18939 13.0433C3.08392 13.0117 2.99014 12.9512 2.91934 12.8693C2.84853 12.7873 2.8037 12.6873 2.79024 12.5813C2.77742 12.4934 2.77152 12.4046 2.77261 12.3158C2.77156 11.0986 2.77138 9.88145 2.7721 8.66428C2.77239 8.12226 2.99778 7.90344 3.55294 7.90295C3.7085 7.90295 3.86423 7.90733 4.01956 7.90207C4.3593 7.8905 4.57942 8.04336 4.70743 8.34321C5.04409 9.13193 5.38322 9.91961 5.72483 10.7063C5.75063 10.7661 5.78215 10.8236 5.811 10.8821L5.84428 10.873Z" fill="white"/>
    <path d="M9.50878 9.13415V10.207C9.96037 10.207 10.4036 10.1999 10.8466 10.2089C11.3302 10.2187 11.6271 10.6478 11.4444 11.0656C11.3332 11.32 11.1204 11.4357 10.8399 11.4369C10.4026 11.4389 9.96524 11.4375 9.49959 11.4375C9.49959 11.7892 9.50373 12.1283 9.49823 12.4675C9.49426 12.7116 9.38644 12.9073 9.15469 13.0158C9.05041 13.0684 8.93297 13.0918 8.81567 13.0833C8.69836 13.0748 8.58585 13.0347 8.49086 12.9676C8.40764 12.9143 8.33993 12.8413 8.29419 12.7555C8.24845 12.6697 8.22621 12.5741 8.22958 12.4776C8.22623 11.1508 8.22391 9.82427 8.23066 8.49766C8.23241 8.15054 8.50991 7.90623 8.88156 7.90459C9.75836 7.90064 10.6352 7.90064 11.512 7.90459C11.9079 7.90629 12.169 8.14829 12.1747 8.50297C12.1803 8.86664 11.9188 9.1262 11.5165 9.13179C10.9298 9.13996 10.343 9.1342 9.75594 9.13431C9.6793 9.1342 9.60266 9.13415 9.50878 9.13415Z" fill="white"/>
    <path d="M13.9768 9.13409C13.7355 9.13409 13.5246 9.13677 13.3138 9.13354C12.8947 9.12712 12.6209 8.88134 12.6204 8.51564C12.6199 8.14632 12.8892 7.9048 13.3134 7.9037C14.1832 7.9014 15.0529 7.9014 15.9228 7.9037C16.3366 7.90497 16.5998 8.14012 16.6064 8.50374C16.613 8.87152 16.341 9.12499 15.9249 9.1331C15.7077 9.13738 15.4904 9.13387 15.2503 9.13387C15.2503 9.23804 15.2503 9.31809 15.2503 9.3983C15.2503 10.3968 15.2531 11.3953 15.2487 12.3939C15.2468 12.8301 14.9868 13.092 14.5873 13.0792C14.4408 13.0786 14.2995 13.0264 14.19 12.9323C14.0804 12.8383 14.01 12.7088 13.9921 12.5682C13.9802 12.4732 13.9753 12.3775 13.9772 12.2818C13.9761 11.3244 13.9759 10.3669 13.9765 9.40943L13.9768 9.13409Z" fill="white"/>
  </g>
  <defs>
    <clipPath id="clip0_2_4894">
      <rect width="19" height="21" fill="white"/>
    </clipPath>
  </defs>
</svg>