<svg xmlns="http://www.w3.org/2000/svg" width="25" height="25" viewBox="0 0 25 25" fill="none">
  <path d="M12.8959 10.3167C12.8959 8.61441 11.5031 7.22166 9.80086 7.22166C8.09861 7.22166 6.70586 8.61441 6.70586 10.3167C6.70586 12.0189 8.09861 13.4117 9.80086 13.4117C11.5031 13.4117 12.8959 12.0189 12.8959 10.3167ZM9.80086 11.3483C9.23345 11.3483 8.7692 10.8841 8.7692 10.3167C8.7692 9.74925 9.23345 9.285 9.80086 9.285C10.3683 9.285 10.8325 9.74925 10.8325 10.3167C10.8325 10.8841 10.3683 11.3483 9.80086 11.3483ZM16.5067 13.4117C17.6519 13.4117 18.57 12.4935 18.57 11.3483C18.57 10.2032 17.6519 9.285 16.5067 9.285C15.3616 9.285 14.4331 10.2032 14.4434 11.3483C14.4434 12.4935 15.3616 13.4117 16.5067 13.4117ZM12.3697 2.07364C6.67491 2.07364 2.05304 6.69551 2.05304 12.3903C2.05304 18.0851 6.67491 22.707 12.3697 22.707C18.0645 22.707 22.6864 18.0851 22.6864 12.3903C22.6864 6.69551 18.0645 2.07364 12.3697 2.07364ZM6.02496 17.6621C6.72649 17.105 8.36685 16.517 9.80086 16.517C9.87308 16.517 9.95561 16.5273 10.0381 16.5273C10.2857 15.867 10.7294 15.1965 11.3793 14.6084C10.8016 14.5052 10.2548 14.4433 9.80086 14.4433C8.4597 14.4433 6.30351 14.9076 4.92108 15.9186C4.40524 14.8457 4.11637 13.6489 4.11637 12.38C4.11637 7.83034 7.82006 4.12666 12.3697 4.12666C16.9194 4.12666 20.6231 7.83034 20.6231 12.38C20.6231 13.618 20.3445 14.7941 19.8493 15.8567C18.8176 15.248 17.4146 14.9592 16.5067 14.9592C14.9386 14.9592 11.8642 15.7948 11.8642 17.7447V20.6127C9.52231 20.4786 7.43834 19.3644 6.02496 17.6621Z" fill="white"/>
</svg>