<svg xmlns="http://www.w3.org/2000/svg" width="19" height="19" viewBox="0 0 19 19" fill="none">
  <path d="M9.25319 10.1073C8.8532 10.1141 8.45749 10.0242 8.09964 9.84544C5.64247 8.63809 3.18603 7.429 0.730306 6.21817C0.249472 5.98089 -0.00436532 5.58083 0.000433002 5.04806C0.0051786 4.5242 0.259807 4.135 0.734683 3.90099C3.17888 2.69653 5.62354 1.49303 8.06869 0.290494C8.85529 -0.0951653 9.65672 -0.0975389 10.4435 0.287645C12.8789 1.47991 15.3122 2.67653 17.7434 3.87748C18.2378 4.1205 18.5177 4.51123 18.5167 5.06193C18.5157 5.61263 18.2354 6.00013 17.7399 6.24342C15.3117 7.43562 12.8845 8.63002 10.4584 9.82661C10.085 10.0157 9.67163 10.112 9.25319 10.1073Z" fill="white"/>
  <path d="M9.21398 14.3229C8.83859 14.32 8.46856 14.2335 8.13087 14.0695C5.6619 12.8567 3.19389 11.6419 0.726846 10.4249C0.259247 10.1944 0.0112641 9.80794 0.000349196 9.29284C-0.00966928 8.82002 0.196026 8.44528 0.599401 8.18321C0.812057 8.04506 1.01069 8.03484 1.24512 8.15158C2.97357 9.01064 4.70473 9.86424 6.43859 10.7124C6.94511 10.9618 7.45521 11.2041 7.95718 11.4618C8.82879 11.9091 9.68985 11.8965 10.5654 11.4623C12.8004 10.3538 15.042 9.2592 17.2774 8.15094C17.5138 8.03372 17.7092 8.05076 17.9223 8.18564C18.1138 8.3061 18.2699 8.47521 18.3747 8.67571C18.4795 8.87621 18.5293 9.10093 18.5189 9.32693C18.5085 9.55293 18.4383 9.77213 18.3155 9.96215C18.1927 10.1522 18.0217 10.3062 17.82 10.4086C17.1384 10.7626 16.4441 11.0922 15.7549 11.4315C14.0114 12.2899 12.2678 13.1482 10.5242 14.0065C10.1186 14.2138 9.66957 14.3222 9.21398 14.3229Z" fill="white"/>
  <path d="M9.26229 18.5346C8.85999 18.5325 8.46321 18.4409 8.10067 18.2665C5.63806 17.0553 3.17606 15.8428 0.714677 14.6292C0.256252 14.4028 0.0115383 14.0169 0.00067619 13.509C-0.00986958 13.0198 0.204525 12.6381 0.627885 12.3759C0.833528 12.2484 1.02367 12.2525 1.23954 12.3593C3.13989 13.3004 5.04199 14.2379 6.94586 15.1718C7.31099 15.3516 7.67622 15.5312 8.04156 15.7107C8.85021 16.1062 9.66134 16.1103 10.4694 15.7134C12.7203 14.6076 14.9724 13.5044 17.2168 12.3854C17.5318 12.2284 17.7741 12.2721 18.031 12.4707C18.1986 12.602 18.3307 12.773 18.4153 12.9682C18.4999 13.1635 18.5344 13.3769 18.5156 13.5888C18.4967 13.8008 18.4252 14.0048 18.3075 14.182C18.1897 14.3593 18.0296 14.5044 17.8415 14.604C17.1985 14.9462 16.5379 15.2554 15.8841 15.5772C14.076 16.4675 12.2676 17.3574 10.459 18.2469C10.0862 18.4299 9.67754 18.5282 9.26229 18.5346Z" fill="white"/>
</svg>