<svg xmlns="http://www.w3.org/2000/svg" width="20" height="15" viewBox="0 0 20 15" fill="none">
  <path d="M19.0069 12.2625H2.4525V0.613125C2.4525 0.274373 2.17813 0 1.83938 0H0.613125C0.274373 0 0 0.274373 0 0.613125V13.4888C0 14.1659 0.54913 14.715 1.22625 14.715H19.0069C19.3456 14.715 19.62 14.4406 19.62 14.1019V12.8756C19.62 12.5369 19.3456 12.2625 19.0069 12.2625ZM17.7806 1.22625H13.2565C12.4372 1.22625 12.0268 2.21683 12.6062 2.79623L13.8478 4.03781L11.0363 6.84976L8.22469 4.03819C7.74569 3.55919 6.96932 3.55919 6.49069 4.03819L3.85847 6.67042C3.61897 6.90992 3.61897 7.2981 3.85847 7.53761L4.72528 8.40441C4.96478 8.64391 5.35296 8.64391 5.59247 8.40441L7.3575 6.63899L10.1691 9.45056C10.6481 9.92956 11.4244 9.92956 11.9031 9.45056L15.5818 5.77181L16.8234 7.01338C17.4028 7.59279 18.3934 7.18238 18.3934 6.36309V1.83938C18.3938 1.50062 18.1194 1.22625 17.7806 1.22625Z" fill="white"/>
</svg>