<svg xmlns="http://www.w3.org/2000/svg" width="20" height="20" viewBox="0 0 20 20" fill="none">
  <path d="M9.98821 5.99669e-06C15.492 -0.00598966 19.9938 4.48476 20.0003 9.98721C20.0067 15.4897 15.5138 19.994 10.0125 20.0003C4.5143 20.0067 0.00551655 15.5087 4.95553e-06 10.0115C-0.00544673 4.50988 4.48794 0.0059417 9.98821 5.99669e-06ZM17.1423 10.0583C17.1673 6.11486 13.9684 2.87312 10.0371 2.85777C6.13297 2.84254 2.90114 6.01107 2.85884 9.89536C2.81583 13.844 5.99422 17.1065 9.91877 17.1422C13.8602 17.1781 17.1173 13.984 17.1423 10.0583Z" fill="white"/>
  <path d="M15.7131 9.99122C15.7168 13.1424 13.137 15.7196 9.98532 15.7132C6.83785 15.7068 4.27154 13.1171 4.287 9.96227C4.30227 6.85184 6.85857 4.29859 9.96987 4.28612C13.1268 4.27347 15.7094 6.83889 15.7131 9.99122ZM10.0078 6.23291C9.60407 6.60014 9.19201 6.82648 9.00689 7.17339C8.58508 7.96481 8.03075 8.54777 7.22791 8.96765C6.13344 9.54005 6.19407 10.3573 7.20035 11.0643C7.86533 11.5311 8.44604 12.1079 8.91763 12.7698C9.62659 13.7789 10.4547 13.8626 11.022 12.7922C11.4172 12.0258 12.0429 11.4029 12.8109 11.0115C13.8524 10.4588 13.8568 9.53897 12.8154 8.99319C12.0194 8.58774 11.3743 7.93741 10.975 7.13777C10.8052 6.81053 10.4125 6.59942 10.0078 6.23291Z" fill="white"/>
  <path d="M4.28693 10.0081C4.28322 6.85693 6.863 4.27976 10.0147 4.28611C13.1622 4.29247 15.7285 6.88223 15.713 10.037C15.6977 13.1475 13.1415 15.7007 10.0302 15.7132C6.87336 15.7258 4.2907 13.1604 4.28693 10.0081ZM9.99227 13.7666C10.3959 13.3993 10.808 13.173 10.9931 12.8261C11.4149 12.0347 11.9693 11.4517 12.7721 11.0318C13.8666 10.4594 13.806 9.64222 12.7996 8.93521C12.1347 8.46832 11.554 7.8916 11.0824 7.22974C10.3734 6.22055 9.54529 6.13691 8.97801 7.20725C8.58284 7.97369 7.95713 8.59657 7.1892 8.98797C6.14763 9.54065 6.1432 10.4605 7.18459 11.0063C7.98065 11.4117 8.62573 12.0621 9.02498 12.8617C9.19482 13.1888 9.58722 13.3999 9.99227 13.7666Z" fill="white"/>
</svg>