<svg xmlns="http://www.w3.org/2000/svg" width="19" height="14" viewBox="0 0 19 14" fill="none">
  <path d="M14.1722 10.2863H14.9722C15.2008 10.2863 15.4294 10.0577 15.4294 9.82908V1.60008C15.4294 1.3715 15.2008 1.14292 14.9722 1.14292H14.1722C13.9436 1.14292 13.715 1.3715 13.715 1.60008V9.82908C13.715 10.0577 13.9436 10.2863 14.1722 10.2863ZM7.31467 10.2863H8.11471C8.34329 10.2863 8.57187 10.0577 8.57187 9.82908V2.743C8.57187 2.51442 8.34329 2.28583 8.11471 2.28583H7.31467C7.08608 2.28583 6.8575 2.51442 6.8575 2.743V9.82908C6.8575 10.0577 7.08608 10.2863 7.31467 10.2863ZM10.7434 10.2863H11.5435C11.772 10.2863 12.0006 10.0577 12.0006 9.82908V5.02883C12.0006 4.80025 11.772 4.57167 11.5435 4.57167H10.7434C10.5148 4.57167 10.2863 4.80025 10.2863 5.02883V9.82908C10.2863 10.0577 10.5148 10.2863 10.7434 10.2863ZM17.7152 12.0006H1.71438V0.571458C1.71438 0.255728 1.45865 0 1.14292 0H0.571458C0.255728 0 0 0.255728 0 0.571458V12.5721C0 13.2032 0.511812 13.715 1.14292 13.715H17.7152C18.0309 13.715 18.2867 13.4593 18.2867 13.1435V12.5721C18.2867 12.2564 18.0309 12.0006 17.7152 12.0006ZM3.88592 10.2863H4.68596C4.91454 10.2863 5.14313 10.0577 5.14313 9.82908V7.31467C5.14313 7.08608 4.91454 6.8575 4.68596 6.8575H3.88592C3.65733 6.8575 3.42875 7.08608 3.42875 7.31467V9.82908C3.42875 10.0577 3.65733 10.2863 3.88592 10.2863Z" fill="white"/>
</svg>